<?xml version="1.0" standalone="no"?>
<!DOCTYPE svg PUBLIC "-//W3C//DTD SVG 20010904//EN"
 "http://www.w3.org/TR/2001/REC-SVG-20010904/DTD/svg10.dtd">
<svg version="1.0" xmlns="http://www.w3.org/2000/svg"
 width="1040.000000pt" height="1040.000000pt" viewBox="0 0 1040.000000 1040.000000"
 preserveAspectRatio="xMidYMid meet">
<metadata>
Created by potrace 1.14, written by Peter Selinger 2001-2017
</metadata>
<g transform="translate(0.000000,1040.000000) scale(0.100000,-0.100000)"
fill="#000000" stroke="none">
<path d="M4938 10394 c-2 -1 -41 -5 -88 -8 -80 -5 -145 -11 -249 -21 -24 -2
-51 -6 -60 -9 -9 -3 -43 -7 -76 -11 -33 -3 -96 -12 -140 -20 -44 -8 -91 -16
-105 -19 -14 -2 -45 -9 -70 -15 -25 -5 -56 -12 -70 -15 -21 -4 -165 -38 -220
-52 -48 -12 -220 -64 -245 -74 -16 -6 -37 -13 -45 -15 -58 -14 -327 -117 -445
-171 -33 -15 -62 -28 -65 -29 -3 0 -15 -6 -27 -13 -13 -7 -23 -9 -23 -5 0 4
-4 4 -8 -2 -4 -5 -65 -39 -137 -74 -71 -35 -157 -80 -190 -100 -33 -20 -74
-43 -90 -51 -17 -8 -32 -18 -35 -21 -3 -3 -20 -14 -39 -24 -19 -9 -39 -21 -45
-26 -6 -5 -33 -24 -61 -41 -127 -80 -243 -161 -357 -250 -33 -27 -65 -48 -70
-48 -5 0 -6 -4 -3 -10 3 -5 -1 -10 -9 -10 -9 0 -16 -4 -16 -10 0 -5 -6 -10
-13 -10 -7 0 -22 -10 -33 -22 -11 -13 -38 -38 -60 -56 -122 -103 -164 -142
-314 -293 -91 -91 -183 -187 -205 -213 -22 -26 -49 -57 -60 -70 -11 -12 -38
-44 -60 -70 -22 -27 -46 -55 -52 -62 -7 -7 -13 -16 -13 -21 0 -5 -9 -15 -20
-23 -11 -8 -20 -20 -20 -26 0 -7 -4 -14 -8 -16 -5 -1 -28 -30 -53 -63 -24 -33
-47 -61 -51 -63 -5 -2 -8 -8 -8 -14 0 -5 -20 -36 -45 -68 -25 -32 -45 -63 -45
-69 0 -6 -4 -11 -10 -11 -5 0 -10 -4 -10 -9 0 -9 -58 -103 -78 -126 -4 -5 -19
-30 -32 -55 -14 -25 -27 -47 -30 -50 -3 -3 -11 -16 -18 -30 -7 -14 -31 -56
-53 -95 -22 -38 -42 -78 -46 -87 -3 -10 -9 -18 -14 -18 -5 0 -9 -5 -9 -11 0
-6 -16 -43 -36 -82 -53 -107 -149 -322 -178 -401 -15 -38 -31 -75 -37 -82 -5
-6 -9 -16 -8 -20 1 -5 -1 -18 -5 -29 -32 -84 -39 -103 -42 -124 -3 -13 -11
-35 -18 -50 -14 -28 -26 -67 -92 -326 -45 -171 -50 -192 -59 -242 -3 -16 -8
-39 -11 -53 -3 -14 -8 -41 -10 -60 -3 -19 -6 -42 -9 -50 -2 -8 -7 -37 -10 -65
-4 -27 -8 -61 -11 -75 -2 -14 -6 -49 -10 -78 -3 -29 -7 -63 -10 -75 -2 -12 -7
-49 -9 -82 -2 -33 -8 -98 -12 -145 -15 -167 -6 -765 13 -880 2 -14 6 -50 10
-80 3 -30 7 -66 10 -80 2 -14 7 -52 10 -85 3 -33 8 -64 11 -68 3 -5 7 -23 10
-40 11 -83 38 -224 47 -255 3 -9 8 -32 11 -51 3 -19 8 -37 10 -41 2 -4 6 -20
9 -36 3 -16 26 -99 51 -184 25 -85 47 -162 50 -170 31 -117 169 -463 236 -592
10 -21 16 -38 13 -38 -4 0 -1 -6 5 -13 6 -8 37 -65 69 -128 80 -156 156 -290
214 -376 26 -40 48 -77 48 -83 0 -5 5 -10 10 -10 6 0 10 -6 10 -13 0 -7 8 -22
17 -33 10 -10 38 -48 63 -84 24 -36 48 -66 52 -68 4 -2 8 -9 8 -15 0 -7 12
-25 26 -42 14 -16 51 -64 82 -105 32 -41 66 -84 77 -96 11 -12 40 -45 65 -75
25 -29 61 -71 80 -93 61 -71 373 -380 424 -421 28 -22 64 -53 80 -68 17 -16
69 -59 116 -95 47 -37 87 -69 90 -72 16 -17 161 -120 169 -120 5 0 11 -4 13
-8 1 -5 35 -30 73 -55 39 -26 75 -50 80 -54 6 -5 22 -14 38 -22 15 -8 27 -18
27 -23 0 -4 4 -8 9 -8 5 0 67 -34 137 -76 129 -76 484 -258 484 -247 0 3 6 1
13 -5 6 -6 53 -27 102 -47 50 -20 99 -40 110 -45 61 -27 262 -96 451 -154 52
-16 310 -81 354 -90 106 -20 190 -36 220 -40 19 -3 46 -8 60 -11 39 -8 247
-34 325 -41 39 -3 88 -8 110 -12 22 -3 1286 -7 2808 -9 l2768 -4 -4 2768 c-2
1522 -6 2784 -9 2803 -3 19 -9 75 -13 124 -4 49 -9 98 -11 110 -2 11 -6 44 -9
71 -7 67 -14 115 -20 145 -2 14 -7 36 -10 50 -2 14 -7 41 -10 60 -13 80 -18
109 -37 190 -11 47 -22 93 -24 103 -2 10 -6 27 -9 37 -3 10 -7 27 -9 37 -14
67 -124 424 -151 488 -7 17 -30 75 -50 130 -21 55 -42 105 -47 111 -4 6 -6 13
-3 16 3 3 -1 11 -10 18 -8 7 -15 19 -15 27 0 7 -40 96 -90 196 -114 231 -164
322 -249 452 -25 39 -52 82 -61 97 -8 15 -49 76 -90 134 -41 59 -79 114 -85
123 -5 9 -12 18 -15 21 -3 3 -21 25 -40 50 -50 65 -62 80 -87 108 -13 14 -23
28 -23 31 0 3 -17 24 -38 47 -20 22 -62 70 -92 105 -61 71 -348 359 -426 429
-28 25 -75 65 -104 89 -29 25 -58 50 -64 56 -6 6 -27 22 -46 35 -19 13 -37 27
-40 30 -21 28 -382 280 -400 280 -5 0 -10 5 -10 10 0 6 -4 10 -10 10 -5 0 -31
15 -57 34 -27 18 -68 44 -93 57 -25 13 -52 29 -60 35 -27 22 -282 153 -395
204 -27 12 -75 33 -105 47 -30 14 -77 34 -105 44 -27 11 -59 24 -70 29 -26 12
-156 61 -175 65 -8 2 -49 15 -90 30 -70 24 -331 101 -375 111 -11 2 -31 6 -45
9 -14 4 -34 8 -45 10 -33 8 -64 15 -87 20 -13 3 -45 10 -73 15 -27 5 -63 12
-80 15 -89 17 -182 31 -260 40 -33 4 -71 9 -85 11 -14 2 -54 6 -90 9 -36 3
-90 8 -120 12 -53 5 -637 13 -642 7z"/>
</g>
</svg>
