<?xml version="1.0" standalone="no"?>
<!DOCTYPE svg PUBLIC "-//W3C//DTD SVG 20010904//EN"
 "http://www.w3.org/TR/2001/REC-SVG-20010904/DTD/svg10.dtd">
<svg version="1.0" xmlns="http://www.w3.org/2000/svg"
 width="1072.000000pt" height="1072.000000pt" viewBox="0 0 1072.000000 1072.000000"
 preserveAspectRatio="xMidYMid meet">
<metadata>
Created by potrace 1.14, written by Peter Selinger 2001-2017
</metadata>
<g transform="translate(0.000000,1072.000000) scale(0.100000,-0.100000)"
fill="#000000" stroke="none">
<path d="M5097 10714 c-1 -1 -45 -5 -97 -8 -122 -7 -223 -17 -311 -31 -13 -2
-51 -6 -84 -10 -33 -4 -132 -20 -220 -37 -865 -161 -1652 -520 -2345 -1068
-88 -69 -113 -90 -175 -145 -12 -11 -49 -44 -82 -72 -119 -103 -349 -339 -468
-479 -22 -26 -51 -59 -65 -75 -14 -15 -33 -38 -42 -51 -37 -50 -54 -71 -70
-86 -10 -9 -18 -22 -18 -29 0 -7 -4 -13 -9 -13 -4 0 -21 -19 -37 -42 -16 -24
-32 -44 -36 -46 -5 -2 -8 -8 -8 -14 0 -5 -6 -16 -12 -23 -37 -41 -138 -191
-138 -204 0 -6 -4 -11 -10 -11 -5 0 -10 -7 -10 -15 0 -8 -4 -15 -10 -15 -5 0
-10 -7 -10 -15 0 -8 -3 -15 -8 -15 -4 0 -16 -17 -27 -37 -11 -21 -22 -40 -25
-43 -3 -3 -12 -18 -20 -35 -8 -16 -21 -36 -28 -43 -6 -7 -12 -19 -12 -26 0 -7
-9 -23 -20 -36 -11 -13 -20 -29 -20 -37 0 -7 -5 -13 -11 -13 -5 0 -8 -4 -5 -9
4 -5 3 -11 -2 -13 -14 -6 -197 -384 -194 -400 1 -5 -3 -8 -10 -8 -6 0 -8 -3
-5 -7 4 -3 3 -11 -2 -17 -8 -10 -59 -128 -65 -151 -6 -22 -18 -51 -32 -77 -8
-15 -15 -31 -16 -35 -1 -11 -7 -31 -24 -76 -8 -20 -14 -40 -15 -45 -2 -10 -4
-15 -38 -114 -17 -49 -29 -88 -26 -88 2 0 -5 -25 -15 -55 -10 -30 -17 -55 -15
-55 2 0 -3 -16 -11 -35 -8 -19 -12 -35 -9 -35 3 0 1 -8 -4 -17 -5 -10 -11 -31
-14 -48 -11 -56 -18 -90 -23 -107 -3 -9 -7 -26 -9 -37 -3 -12 -7 -31 -10 -43
-3 -13 -8 -38 -11 -57 -3 -18 -8 -43 -10 -55 -2 -11 -7 -36 -10 -55 -3 -18 -8
-43 -10 -55 -6 -28 -16 -99 -30 -211 -3 -27 -8 -61 -9 -75 -21 -158 -28 -322
-29 -595 0 -311 8 -448 35 -655 6 -41 12 -92 14 -114 3 -21 9 -65 15 -97 6
-33 13 -76 16 -97 9 -76 77 -363 125 -527 98 -341 216 -640 372 -945 100 -195
238 -432 277 -477 5 -7 10 -15 10 -18 0 -6 58 -93 70 -105 3 -3 22 -30 42 -60
57 -85 100 -144 135 -186 17 -22 53 -66 80 -99 26 -33 52 -65 58 -71 5 -6 30
-35 55 -65 139 -164 383 -408 551 -549 29 -25 60 -52 69 -60 9 -9 34 -29 55
-45 22 -17 54 -42 70 -57 17 -16 33 -28 36 -28 3 0 17 -10 31 -22 14 -13 35
-30 48 -38 13 -8 43 -30 67 -48 24 -17 46 -32 49 -32 3 0 12 -6 19 -13 33 -29
123 -89 128 -85 1 2 13 -7 27 -20 13 -12 30 -22 37 -22 7 0 13 -4 13 -10 0 -5
7 -10 15 -10 8 0 15 -3 15 -8 0 -7 10 -13 66 -42 16 -8 32 -19 36 -25 5 -6 8
-6 8 0 0 7 3 7 8 0 8 -12 34 -28 82 -52 19 -9 37 -20 40 -23 3 -4 55 -31 115
-60 61 -30 112 -58 113 -62 2 -5 8 -6 13 -2 5 3 9 0 9 -5 0 -6 3 -10 8 -9 4 1
28 -8 55 -20 26 -12 68 -32 95 -44 26 -12 49 -23 52 -23 3 -1 19 -8 35 -15 17
-7 35 -14 40 -16 6 -1 44 -16 85 -34 69 -29 285 -107 320 -115 8 -2 16 -4 18
-5 1 -2 5 -3 10 -4 4 -1 34 -10 67 -20 33 -10 67 -20 75 -22 8 -2 40 -10 70
-19 62 -18 83 -23 124 -31 16 -2 32 -7 36 -9 4 -2 21 -7 38 -10 18 -3 62 -12
99 -21 37 -8 81 -17 98 -20 16 -2 41 -6 55 -9 14 -4 39 -8 55 -10 17 -2 41 -6
54 -9 12 -3 44 -8 70 -11 78 -9 135 -16 161 -21 14 -2 61 -6 105 -10 44 -3 94
-8 110 -11 17 -4 1316 -8 2888 -10 l2858 -4 -4 2858 c-2 1572 -6 2872 -10
2888 -3 17 -8 66 -11 110 -10 140 -74 567 -92 615 -3 8 -8 29 -11 45 -14 90
-116 457 -156 565 -14 36 -26 70 -27 75 -4 16 -11 35 -46 124 -19 47 -34 88
-34 93 0 4 -17 45 -39 90 -21 46 -44 100 -52 121 -7 20 -17 37 -21 37 -4 0 -8
7 -8 16 0 19 -159 328 -171 332 -5 2 -9 8 -9 14 0 9 -56 111 -92 166 -10 15
-25 41 -34 57 -9 17 -20 32 -23 35 -3 3 -12 17 -20 32 -8 15 -22 37 -33 47
-10 11 -18 25 -18 31 0 5 -4 10 -10 10 -5 0 -10 5 -10 11 0 12 -147 219 -195
273 -5 6 -23 29 -40 51 -34 46 -52 69 -80 100 -11 13 -42 49 -70 81 -144 167
-379 402 -539 539 -33 28 -64 55 -70 60 -19 17 -71 59 -100 80 -15 11 -38 29
-51 40 -50 42 -158 122 -269 197 -10 7 -29 21 -41 31 -13 9 -28 17 -34 17 -6
0 -11 3 -11 8 0 4 -13 13 -29 20 -16 7 -42 24 -57 37 -16 14 -33 25 -37 25 -5
0 -28 13 -51 30 -24 16 -46 27 -48 24 -3 -2 -11 2 -18 11 -7 8 -19 15 -26 15
-8 0 -14 3 -14 8 0 4 -15 13 -32 21 -18 8 -35 17 -38 20 -3 3 -59 33 -125 66
-66 33 -121 63 -123 68 -2 4 -8 7 -13 7 -10 0 -44 15 -146 62 -27 12 -50 23
-53 23 -3 1 -22 9 -42 18 -21 10 -40 17 -44 17 -3 0 -20 6 -37 14 -33 14 -68
28 -77 30 -3 1 -16 8 -30 16 -14 7 -25 12 -25 11 0 -1 -7 0 -15 3 -8 3 -49 17
-90 31 -41 15 -82 28 -90 30 -8 2 -16 4 -17 5 -2 2 -7 4 -13 5 -5 1 -12 4 -15
5 -3 1 -8 3 -12 4 -5 1 -35 10 -68 20 -33 10 -64 19 -70 21 -33 7 -75 19 -110
30 -22 7 -53 15 -70 18 -16 3 -41 9 -55 12 -14 3 -36 8 -50 11 -14 3 -41 9
-60 14 -19 5 -48 12 -65 14 -16 3 -40 8 -51 10 -12 2 -37 7 -55 10 -19 3 -45
8 -59 11 -13 2 -42 7 -65 10 -22 3 -51 8 -65 10 -14 2 -50 7 -80 10 -30 3 -66
8 -80 10 -14 3 -56 7 -95 10 -38 3 -95 8 -125 11 -57 6 -647 13 -653 8z"/>
</g>
</svg>
